# xmcd
#
# Track frame offsets: 
#        150
#        18387
#        36050
#        48650
#        64775
#        81925
#        95225
#        110525
#        128137
#        146525
#        166125
#        178725
#        195325
#        212262
#        229100
#        250475
#        265250
#        291725
#
# Disc length: 4125 seconds
#
# Revision: 2
# Processed by: cddbd v1.5.1PL0 Copyright (c) Steve Scherf et al.
# Submitted via: ExactAudioCopy v0.95a5
#
DISCID=0a101b12
DTITLE=Trisha Yearwood - Songbook: A Collection of Hits
DYEAR=1997
DGENRE=Country
TTITLE0=How Do I Live
TTITLE1=The Song Remembers When
TTITLE2=The Wrong Side of Memphis
TTITLE3=In Another's Eyes
TTITLE4=The Woman Before Me
TTITLE5=Perfect Love
TTITLE6=Thinkin' About You
TTITLE7=Down on My Knees
TTITLE8=She's In Love With The Boy
TTITLE9=Walkaway Joe
TTITLE10=Xxx's and Ooo's (An American Girl)
TTITLE11=Like We Never Had a Broken Heart
TTITLE12=A Lover is Forever
TTITLE13=Believe Me Baby I Lied
TTITLE14=On a Bus to St. Cloud
TTITLE15=You Can Sleep While I Drive
TTITLE16=The Flame
TTITLE17=Save The Land
EXTD=
EXTT0=
EXTT1=
EXTT2=
EXTT3=Duet with Garth Brooks
EXTT4=
EXTT5=
EXTT6=
EXTT7=
EXTT8=
EXTT9=
EXTT10=
EXTT11=
EXTT12=
EXTT13=
EXTT14=
EXTT15=
EXTT16=
EXTT17=
PLAYORDER=
